<!-- <svg class="w-6 h-6 text-gray-800 dark:text-white text-xl md:text-2xl" aria-hidden="true" xmlns="http://www.w3.org/2000/svg" fill="currentColor" viewBox="0 0 20 18">
    <path d="M18 0H2a2 2 0 0 0-2 2v9a2 2 0 0 0 2 2h2v4a1 1 0 0 0 1.707.707L10.414 13H18a2 2 0 0 0 2-2V2a2 2 0 0 0-2-2Zm-5 4h2a1 1 0 1 1 0 2h-2a1 1 0 1 1 0-2ZM5 4h5a1 1 0 1 1 0 2H5a1 1 0 0 1 0-2Zm2 5H5a1 1 0 0 1 0-2h2a1 1 0 0 1 0 2Zm9 0h-6a1 1 0 0 1 0-2h6a1 1 0 1 1 0 2Z"/>
  </svg> -->
<svg xmlns="http://www.w3.org/2000/svg" width="30" height="30" fill="#fff" class="bi bi-chat-left-dots-fill" viewBox="0 0 16 16">
  <path d="M0 2a2 2 0 0 1 2-2h12a2 2 0 0 1 2 2v8a2 2 0 0 1-2 2H4.414a1 1 0 0 0-.707.293L.854 15.146A.5.5 0 0 1 0 14.793V2zm5 4a1 1 0 1 0-2 0 1 1 0 0 0 2 0zm4 0a1 1 0 1 0-2 0 1 1 0 0 0 2 0zm3 1a1 1 0 1 0 0-2 1 1 0 0 0 0 2z"/>
</svg>  